<svg width="24" height="24" viewBox="0 0 24 24" fill="none" xmlns="http://www.w3.org/2000/svg" style="display: inline-block; vertical-align: -0.15em; margin-right: 8px;">
  <path d="M9 8.49023H3V16.2695C3.29437 16.0991 3.63536 16 4 16H20C20.3646 16 20.7056 16.0991 21 16.2695V8.49023H15V6.5H21C22.1 6.5 23 7.4 23 8.5V19.5C23 20.6 22.1 21.5 21 21.5H3C1.9 21.5 1 20.6 1 19.5V8.5C1 7.4 1.9 6.5 3 6.5H9V8.49023ZM5 18C4.44772 18 4 18.4477 4 19C4 19.5523 4.44772 20 5 20C5.55228 20 6 19.5523 6 19C6 18.4477 5.55228 18 5 18ZM8 18C7.44772 18 7 18.4477 7 19C7 19.5523 7.44772 20 8 20C8.55228 20 9 19.5523 9 19C9 18.4477 8.55228 18 8 18ZM13 10.5H16L12 14.5L8 10.5H11V2.5H13V10.5Z" fill="#17324D"/>
</svg>
