<svg width="22" height="22" viewBox="0 0 22 22" fill="none" xmlns="http://www.w3.org/2000/svg" style="display: inline-block; vertical-align: middle; margin-right: 8px;">
  <path d="M15.2075 6.9485L9.16671 12.9893L5.87587 9.70766L4.58337 11.0002L9.16671 15.5835L16.5 8.25016L15.2075 6.9485ZM11 1.8335C5.94004 1.8335 1.83337 5.94016 1.83337 11.0002C1.83337 16.0602 5.94004 20.1668 11 20.1668C16.06 20.1668 20.1667 16.0602 20.1667 11.0002C20.1667 5.94016 16.06 1.8335 11 1.8335ZM11 18.3335C6.94837 18.3335 3.66671 15.0518 3.66671 11.0002C3.66671 6.9485 6.94837 3.66683 11 3.66683C15.0517 3.66683 18.3334 6.9485 18.3334 11.0002C18.3334 15.0518 15.0517 18.3335 11 18.3335Z" fill="#6CC66A"/>
</svg>
