<svg width="22" height="22" viewBox="0 0 22 22" fill="none" xmlns="http://www.w3.org/2000/svg" style="display: inline-block; vertical-align: -0.15em; margin-right: 8px;">
  <path d="M10.0834 13.7502H11.9167V15.5835H10.0834V13.7502ZM10.0834 6.41683H11.9167V11.9168H10.0834V6.41683ZM10.9909 1.8335C5.93087 1.8335 1.83337 5.94016 1.83337 11.0002C1.83337 16.0602 5.93087 20.1668 10.9909 20.1668C16.06 20.1668 20.1667 16.0602 20.1667 11.0002C20.1667 5.94016 16.06 1.8335 10.9909 1.8335ZM11 18.3335C6.94837 18.3335 3.66671 15.0518 3.66671 11.0002C3.66671 6.9485 6.94837 3.66683 11 3.66683C15.0517 3.66683 18.3334 6.9485 18.3334 11.0002C18.3334 15.0518 15.0517 18.3335 11 18.3335Z" fill="#FE6666"/>
</svg>
